<svg width="1296" height="507" viewBox="0 0 1296 507" fill="none" xmlns="http://www.w3.org/2000/svg">
<path d="M36.9175 253.851C36.9175 135.055 133.122 38.8506 251.917 38.8506C370.713 38.8506 466.917 135.055 466.917 253.851C466.917 372.646 370.713 468.851 251.917 468.851C133.122 468.851 36.9175 372.646 36.9175 253.851Z" fill="white"/>
<path d="M212.179 284.775C204.99 293.322 194.303 298.955 179.73 298.955C151.168 298.955 136.789 277.199 136.789 253.306C136.789 229.413 151.168 207.656 179.73 207.656C208.293 207.656 199.355 210.764 206.155 216.009V162.007C197.995 160.259 189.251 159.093 179.73 159.093C115.805 159.093 79.6642 204.743 79.6642 253.5C79.6642 302.257 115.805 347.907 179.73 347.907C243.656 347.907 223.837 340.331 240.158 328.093C225.391 316.826 218.008 301.869 212.179 284.969V284.775Z" fill="black"/>
<path d="M322.931 159.093C313.605 159.093 304.667 160.064 296.506 162.007V216.009C303.307 210.764 312.05 207.656 322.931 207.656C351.494 207.656 365.872 229.413 365.872 253.306C365.872 277.199 351.494 298.955 322.931 298.955C294.369 298.955 281.156 278.559 280.185 255.637V158.899H223.06V255.637C224.226 303.229 260.172 347.518 323.126 347.518C386.08 347.518 423.192 301.869 423.192 253.111C423.192 204.354 387.051 158.705 323.126 158.705L322.931 159.093Z" fill="black"/>
<path d="M647.806 148.215H617.689C614.774 141.222 608.557 135.006 596.704 135.006C584.852 135.006 574.748 146.078 574.748 159.287C574.748 172.497 582.326 183.569 596.704 183.569C611.082 183.569 614.969 177.353 617.689 170.36H647.806C643.92 191.145 624.684 209.405 596.898 209.405C569.113 209.405 544.048 188.231 544.048 159.287C544.048 130.344 564.644 109.17 596.898 109.17C629.153 109.17 643.92 127.43 647.806 148.215Z" fill="white"/>
<path d="M764.776 159.093C764.776 184.929 745.54 209.21 711.731 209.21C677.923 209.21 658.687 184.929 658.687 159.093C658.687 133.257 677.923 108.976 711.731 108.976C745.54 108.976 764.776 133.257 764.776 159.093ZM734.465 159.093C734.465 146.467 726.887 134.811 711.731 134.811C696.576 134.811 688.998 146.467 688.998 159.093C688.998 171.72 696.576 183.375 711.731 183.375C726.887 183.375 734.465 171.72 734.465 159.093Z" fill="white"/>
<path d="M812.38 206.879H781.292V111.307H811.409V125.487C815.489 116.357 826.953 108.976 840.165 108.976C863.093 108.976 874.557 124.71 874.557 147.438V206.685H843.469V152.489C843.469 142.582 838.805 135.783 828.313 135.783C817.821 135.783 812.38 141.61 812.38 152.294V206.685V206.879Z" fill="white"/>
<path d="M953.25 181.821V206.491C949.947 207.851 941.397 209.21 934.791 209.21C911.863 209.21 901.371 195.613 901.371 174.439V136.948H884.855V111.307H901.371V82.7517H932.459V111.307H954.027V136.948H932.459V172.497C932.459 179.878 935.957 183.375 943.34 183.375C950.724 183.375 950.141 182.792 953.25 181.821Z" fill="white"/>
<path d="M1036.02 177.159H1064.59C1058.76 195.224 1039.71 209.21 1015.82 209.21C991.916 209.21 963.548 188.425 963.548 158.899C963.548 129.372 984.727 108.976 1014.46 108.976C1044.18 108.976 1065.17 128.401 1065.17 159.287V168.612H993.859C995.802 179.101 1002.21 186.677 1015.62 186.677C1029.03 186.677 1032.14 182.986 1035.63 177.159H1036.02ZM994.248 149.575H1035.83C1034.27 138.114 1026.89 130.732 1015.23 130.732C1003.57 130.732 995.996 137.531 994.442 149.575H994.248Z" fill="white"/>
<path d="M1113.55 206.879H1082.46V111.307H1112.58V125.487C1116.66 116.357 1128.12 108.976 1141.34 108.976C1164.26 108.976 1175.73 124.71 1175.73 147.438V206.685H1144.64V152.489C1144.64 142.582 1139.97 135.783 1129.48 135.783C1118.99 135.783 1113.55 141.61 1113.55 152.294V206.685V206.879Z" fill="white"/>
<path d="M1254.42 181.821V206.491C1251.12 207.851 1242.57 209.21 1235.96 209.21C1213.03 209.21 1202.54 195.613 1202.54 174.439V136.948H1186.02V111.307H1202.54V82.7517H1233.63V111.307H1255.2V136.948H1233.63V172.497C1233.63 179.878 1237.13 183.375 1244.51 183.375C1251.89 183.375 1251.31 182.792 1254.42 181.821Z" fill="white"/>
<path d="M657.909 334.698C657.909 363.059 637.896 384.815 610.111 384.815C582.326 384.815 584.657 377.433 579.411 368.303V382.484H549.488V244.176H580.577V301.286C584.852 291.574 595.733 284.775 610.111 284.775C637.702 284.775 657.909 306.337 657.909 334.892V334.698ZM627.015 334.698C627.015 320.906 617.494 310.416 604.088 310.416C590.681 310.416 580.771 320.711 580.771 334.698C580.771 348.684 590.486 358.979 604.088 358.979C617.689 358.979 627.015 348.49 627.015 334.698Z" fill="white"/>
<path d="M747.677 301.092V286.912H778.183V382.484H748.26V368.303C743.014 377.433 731.939 384.815 717.56 384.815C689.969 384.815 669.762 363.253 669.762 334.698C669.762 306.143 689.775 284.58 717.56 284.58C745.346 284.58 743.403 291.379 747.677 301.092ZM747.094 334.698C747.094 320.712 737.379 310.416 723.778 310.416C710.177 310.416 700.85 320.906 700.85 334.698C700.85 348.49 710.371 358.979 723.778 358.979C737.185 358.979 747.094 348.684 747.094 334.698Z" fill="white"/>
<path d="M799.945 382.484V244.176H831.033V333.144L861.344 286.911H895.736L863.288 334.503L897.485 382.484H861.344L831.228 337.223V382.484H800.139H799.945Z" fill="white"/>
<path d="M973.263 352.569H1001.83C995.996 370.634 976.955 384.621 953.056 384.621C929.156 384.621 900.788 363.836 900.788 334.309C900.788 304.783 921.967 284.386 951.695 284.386C981.424 284.386 1002.41 303.812 1002.41 334.698V344.022H931.099C933.042 354.512 939.454 362.087 952.861 362.087C966.268 362.087 969.377 358.397 972.874 352.569H973.263ZM931.294 324.985H972.874C971.32 313.524 963.937 306.143 952.278 306.143C940.62 306.143 933.042 312.941 931.488 324.985H931.294Z" fill="white"/>
<path d="M1081.1 317.021H1074.88C1057.78 317.021 1050.79 324.014 1050.79 342.662V382.484H1019.7V286.911H1049.82V305.948C1053.9 290.602 1065.56 286.329 1077.99 286.329H1081.1V317.215V317.021Z" fill="white"/>
<path d="M1160.18 286.911H1192.24L1154.16 382.484L1139.78 422.112H1107.33L1123.85 378.793L1087.32 287.106H1119.38L1139.78 348.878L1160.18 287.106V286.911Z" fill="white"/>
</svg>
