<svg width="667" height="261" viewBox="0 0 667 261" fill="none" xmlns="http://www.w3.org/2000/svg">
<path d="M19 130.4C19 69.4 68.4 20 129.4 20C190.4 20 239.8 69.4 239.8 130.4C239.8 191.4 190.4 240.8 129.4 240.8C68.4 240.8 19 191.4 19 130.4Z" fill="white"/>
<path d="M109.2 146.6C105.5 151 100 153.9 92.5 153.9C77.8 153.9 70.4 142.7 70.4 130.4C70.4 118.1 77.8 106.9 92.5 106.9C107.2 106.9 102.6 108.5 106.1 111.2V83.4C101.9 82.5 97.4 81.9 92.5 81.9C59.6 81.9 41 105.4 41 130.5C41 155.6 59.6 179.1 92.5 179.1C125.4 179.1 115.2 175.2 123.6 168.9C116 163.1 112.2 155.4 109.2 146.7V146.6Z" fill="black"/>
<path d="M166.2 81.9C161.4 81.9 156.8 82.4 152.6 83.4V111.2C156.1 108.5 160.6 106.9 166.2 106.9C180.9 106.9 188.3 118.1 188.3 130.4C188.3 142.7 180.9 153.9 166.2 153.9C151.5 153.9 144.7 143.4 144.2 131.6V81.8H114.8V131.6C115.4 156.1 133.9 178.9 166.3 178.9C198.7 178.9 217.8 155.4 217.8 130.3C217.8 105.2 199.2 81.7 166.3 81.7L166.2 81.9Z" fill="black"/>
<path d="M333.4 76.3H317.9C316.4 72.7 313.2 69.5 307.1 69.5C301 69.5 295.8 75.2 295.8 82C295.8 88.8 299.7 94.5 307.1 94.5C314.5 94.5 316.5 91.3 317.9 87.7H333.4C331.4 98.4 321.5 107.8 307.2 107.8C292.9 107.8 280 96.9 280 82C280 67.1 290.6 56.2 307.2 56.2C323.8 56.2 331.4 65.6 333.4 76.3Z" fill="white"/>
<path d="M393.6 81.9C393.6 95.2 383.7 107.7 366.3 107.7C348.9 107.7 339 95.2 339 81.9C339 68.6 348.9 56.1 366.3 56.1C383.7 56.1 393.6 68.6 393.6 81.9ZM378 81.9C378 75.4 374.1 69.4 366.3 69.4C358.5 69.4 354.6 75.4 354.6 81.9C354.6 88.4 358.5 94.4 366.3 94.4C374.1 94.4 378 88.4 378 81.9Z" fill="white"/>
<path d="M418.1 106.5H402.1V57.3H417.6V64.6C419.7 59.9 425.6 56.1 432.4 56.1C444.2 56.1 450.1 64.2 450.1 75.9V106.4H434.1V78.5C434.1 73.4 431.7 69.9 426.3 69.9C420.9 69.9 418.1 72.9 418.1 78.4V106.4V106.5Z" fill="white"/>
<path d="M490.6 93.6V106.3C488.9 107 484.5 107.7 481.1 107.7C469.3 107.7 463.9 100.7 463.9 89.8V70.5H455.4V57.3H463.9V42.6H479.9V57.3H491V70.5H479.9V88.8C479.9 92.6 481.7 94.4 485.5 94.4C489.3 94.4 489 94.1 490.6 93.6Z" fill="white"/>
<path d="M533.2 91.2H547.9C544.9 100.5 535.1 107.7 522.8 107.7C510.5 107.7 495.9 97 495.9 81.8C495.9 66.6 506.8 56.1 522.1 56.1C537.4 56.1 548.2 66.1 548.2 82V86.8H511.5C512.5 92.2 515.8 96.1 522.7 96.1C529.6 96.1 531.2 94.2 533 91.2H533.2ZM511.7 77H533.1C532.3 71.1 528.5 67.3 522.5 67.3C516.5 67.3 512.6 70.8 511.8 77H511.7Z" fill="white"/>
<path d="M573.1 106.5H557.1V57.3H572.6V64.6C574.7 59.9 580.6 56.1 587.4 56.1C599.2 56.1 605.1 64.2 605.1 75.9V106.4H589.1V78.5C589.1 73.4 586.7 69.9 581.3 69.9C575.9 69.9 573.1 72.9 573.1 78.4V106.4V106.5Z" fill="white"/>
<path d="M645.6 93.6V106.3C643.9 107 639.5 107.7 636.1 107.7C624.3 107.7 618.9 100.7 618.9 89.8V70.5H610.4V57.3H618.9V42.6H634.9V57.3H646V70.5H634.9V88.8C634.9 92.6 636.7 94.4 640.5 94.4C644.3 94.4 644 94.1 645.6 93.6Z" fill="white"/>
<path d="M338.6 172.3C338.6 186.9 328.3 198.1 314 198.1C299.7 198.1 300.9 194.3 298.2 189.6V196.9H282.8V125.7H298.8V155.1C301 150.1 306.6 146.6 314 146.6C328.2 146.6 338.6 157.7 338.6 172.4V172.3ZM322.7 172.3C322.7 165.2 317.8 159.8 310.9 159.8C304 159.8 298.9 165.1 298.9 172.3C298.9 179.5 303.9 184.8 310.9 184.8C317.9 184.8 322.7 179.4 322.7 172.3Z" fill="white"/>
<path d="M384.8 155V147.7H400.5V196.9H385.1V189.6C382.4 194.3 376.7 198.1 369.3 198.1C355.1 198.1 344.7 187 344.7 172.3C344.7 157.6 355 146.5 369.3 146.5C383.6 146.5 382.6 150 384.8 155ZM384.5 172.3C384.5 165.1 379.5 159.8 372.5 159.8C365.5 159.8 360.7 165.2 360.7 172.3C360.7 179.4 365.6 184.8 372.5 184.8C379.4 184.8 384.5 179.5 384.5 172.3Z" fill="white"/>
<path d="M411.7 196.9V125.7H427.7V171.5L443.3 147.7H461L444.3 172.2L461.9 196.9H443.3L427.8 173.6V196.9H411.8H411.7Z" fill="white"/>
<path d="M500.9 181.5H515.6C512.6 190.8 502.8 198 490.5 198C478.2 198 463.6 187.3 463.6 172.1C463.6 156.9 474.5 146.4 489.8 146.4C505.1 146.4 515.9 156.4 515.9 172.3V177.1H479.2C480.2 182.5 483.5 186.4 490.4 186.4C497.3 186.4 498.9 184.5 500.7 181.5H500.9ZM479.3 167.3H500.7C499.9 161.4 496.1 157.6 490.1 157.6C484.1 157.6 480.2 161.1 479.4 167.3H479.3Z" fill="white"/>
<path d="M556.4 163.2H553.2C544.4 163.2 540.8 166.8 540.8 176.4V196.9H524.8V147.7H540.3V157.5C542.4 149.6 548.4 147.4 554.8 147.4H556.4V163.3V163.2Z" fill="white"/>
<path d="M597.1 147.7H613.6L594 196.9L586.6 217.3H569.9L578.4 195L559.6 147.8H576.1L586.6 179.6L597.1 147.8V147.7Z" fill="white"/>
</svg>
