<svg width="500" height="500" viewBox="0 0 500 500" fill="none" xmlns="http://www.w3.org/2000/svg">
<path d="M250 465C368.741 465 465 368.741 465 250C465 131.259 368.741 35 250 35C131.259 35 35 131.259 35 250C35 368.741 131.259 465 250 465Z" fill="white"/>
<path d="M210.679 281.611C203.519 290.202 192.725 295.93 178.296 295.93C149.659 295.93 135.341 274.121 135.341 250.11C135.341 226.099 149.659 204.291 178.296 204.291C206.934 204.291 197.902 207.485 204.731 212.661V158.471C196.58 156.598 187.769 155.607 178.296 155.607C114.193 155.607 78.0659 201.427 78.0659 250.11C78.0659 298.794 114.193 344.613 178.296 344.613C242.4 344.613 222.574 337.013 238.765 324.787C223.896 313.553 216.516 298.463 210.679 281.611Z" fill="black"/>
<path d="M321.703 155.497C312.231 155.497 303.53 156.488 295.269 158.361V212.551C301.988 207.375 310.799 204.18 321.703 204.18C350.341 204.18 364.659 225.989 364.659 250C364.659 274.011 350.341 295.82 321.703 295.82C293.066 295.82 279.739 275.443 278.858 252.423V155.497H221.583V252.423C222.795 300.225 258.811 344.503 321.814 344.503C384.816 344.503 422.044 298.683 422.044 250C422.044 201.317 385.917 155.497 321.814 155.497H321.703Z" fill="black"/>
</svg>
