<?xml version="1.0" encoding="UTF-8"?>
<svg id="Vrstva_1" data-name="Vrstva 1" xmlns="http://www.w3.org/2000/svg" version="1.1" viewBox="0 0 900 300">
  <defs>
    <style>
      .cls-1 {
        fill: #000;
      }

      .cls-1, .cls-2 {
        stroke-width: 0px;
      }

      .cls-2 {
        fill: #fff;
      }
    </style>
  </defs>
  <path class="cls-2" d="M130.1,146.2c0-61,49.4-110.4,110.4-110.4s110.4,49.4,110.4,110.4-49.4,110.4-110.4,110.4-110.4-49.4-110.4-110.4"/>
  <g>
    <path class="cls-1" d="M220.3,162.4c-3.7,4.4-9.2,7.3-16.7,7.3-14.7,0-22.1-11.2-22.1-23.5s7.4-23.5,22.1-23.5,10.1,1.6,13.6,4.3v-27.8c-4.2-.9-8.7-1.5-13.6-1.5-32.9,0-51.5,23.5-51.5,48.6s18.6,48.6,51.5,48.6,22.7-3.9,31.1-10.2c-7.6-5.8-11.4-13.5-14.4-22.2Z"/>
    <path class="cls-1" d="M277.3,97.7c-4.8,0-9.4.5-13.6,1.5v27.8c3.5-2.7,8-4.3,13.6-4.3,14.7,0,22.1,11.2,22.1,23.5s-7.4,23.5-22.1,23.5-21.5-10.5-22-22.3h0v-49.8h-29.4v49.8h0c.6,24.5,19.1,47.3,51.5,47.3s51.5-23.5,51.5-48.6-18.6-48.6-51.5-48.6Z"/>
  </g>
  <g>
    <path class="cls-2" d="M444.5,92.1h-15.5c-1.5-3.6-4.7-6.8-10.8-6.8s-11.3,5.7-11.3,12.5,3.9,12.5,11.3,12.5,9.4-3.2,10.8-6.8h15.5c-2,10.7-11.9,20.1-26.2,20.1s-27.2-10.9-27.2-25.8,10.6-25.8,27.2-25.8,24.2,9.4,26.2,20.1Z"/>
    <path class="cls-2" d="M504.7,97.7c0,13.3-9.9,25.8-27.3,25.8s-27.3-12.5-27.3-25.8,9.9-25.8,27.3-25.8,27.3,12.5,27.3,25.8ZM489.1,97.7c0-6.5-3.9-12.5-11.7-12.5s-11.7,6-11.7,12.5,3.9,12.5,11.7,12.5,11.7-6,11.7-12.5Z"/>
    <path class="cls-2" d="M529.2,122.3h-16v-49.2h15.5v7.3c2.1-4.7,8-8.5,14.8-8.5,11.8,0,17.7,8.1,17.7,19.8v30.5h-16v-27.9c0-5.1-2.4-8.6-7.8-8.6s-8.2,3-8.2,8.5v28Z"/>
    <path class="cls-2" d="M601.7,109.4v12.7c-1.7.7-6.1,1.4-9.5,1.4-11.8,0-17.2-7-17.2-17.9v-19.3h-8.5v-13.2h8.5v-14.7h16v14.7h11.1v13.2h-11.1v18.3c0,3.8,1.8,5.6,5.6,5.6s3.5-.3,5.1-.8Z"/>
    <path class="cls-2" d="M644.3,107h14.7c-3,9.3-12.8,16.5-25.1,16.5s-26.9-10.7-26.9-25.9,10.9-25.7,26.2-25.7,26.1,10,26.1,25.9v4.8h-36.7c1,5.4,4.3,9.3,11.2,9.3s8.5-1.9,10.3-4.9ZM622.8,92.8h21.4c-.8-5.9-4.6-9.7-10.6-9.7s-9.9,3.5-10.7,9.7Z"/>
    <path class="cls-2" d="M684.2,122.3h-16v-49.2h15.5v7.3c2.1-4.7,8-8.5,14.8-8.5,11.8,0,17.7,8.1,17.7,19.8v30.5h-16v-27.9c0-5.1-2.4-8.6-7.8-8.6s-8.2,3-8.2,8.5v28Z"/>
    <path class="cls-2" d="M756.7,109.4v12.7c-1.7.7-6.1,1.4-9.5,1.4-11.8,0-17.2-7-17.2-17.9v-19.3h-8.5v-13.2h8.5v-14.7h16v14.7h11.1v13.2h-11.1v18.3c0,3.8,1.8,5.6,5.6,5.6s3.5-.3,5.1-.8Z"/>
  </g>
  <g>
    <path class="cls-2" d="M449.7,188.1c0,14.6-10.3,25.8-24.6,25.8s-13.1-3.8-15.8-8.5v7.3h-15.4v-71.2h16v29.4c2.2-5,7.8-8.5,15.2-8.5,14.2,0,24.6,11.1,24.6,25.8ZM433.8,188.1c0-7.1-4.9-12.5-11.8-12.5s-12,5.3-12,12.5,5,12.5,12,12.5,11.8-5.4,11.8-12.5Z"/>
    <path class="cls-2" d="M495.9,170.8v-7.3h15.7v49.2h-15.4v-7.3c-2.7,4.7-8.4,8.5-15.8,8.5-14.2,0-24.6-11.1-24.6-25.8s10.3-25.8,24.6-25.8,13.3,3.5,15.5,8.5ZM495.6,188.1c0-7.2-5-12.5-12-12.5s-11.8,5.4-11.8,12.5,4.9,12.5,11.8,12.5,12-5.3,12-12.5Z"/>
    <path class="cls-2" d="M522.8,212.7v-71.2h16v45.8l15.6-23.8h17.7l-16.7,24.5,17.6,24.7h-18.6l-15.5-23.3v23.3h-16Z"/>
    <path class="cls-2" d="M612,197.3h14.7c-3,9.3-12.8,16.5-25.1,16.5s-26.9-10.7-26.9-25.9,10.9-25.7,26.2-25.7,26.1,10,26.1,25.9v4.8h-36.7c1,5.4,4.3,9.3,11.2,9.3s8.5-1.9,10.3-4.9ZM590.4,183.1h21.4c-.8-5.9-4.6-9.7-10.6-9.7s-9.9,3.5-10.7,9.7Z"/>
    <path class="cls-2" d="M667.5,179h-3.2c-8.8,0-12.4,3.6-12.4,13.2v20.5h-16v-49.2h15.5v9.8c2.1-7.9,8.1-10.1,14.5-10.1h1.6v15.9Z"/>
    <path class="cls-2" d="M708.2,163.5h16.5l-19.6,49.2-7.4,20.4h-16.7l8.5-22.3-18.8-47.2h16.5l10.5,31.8,10.5-31.8Z"/>
  </g>
</svg>