<?xml version="1.0" encoding="UTF-8"?>
<svg id="Vrstva_1" data-name="Vrstva 1" xmlns="http://www.w3.org/2000/svg" version="1.1" viewBox="0 0 500 500">
  <defs>
    <style>
      .cls-1 {
        fill: #000;
      }

      .cls-1, .cls-2 {
        stroke-width: 0px;
      }

      .cls-2 {
        fill: #fff;
      }
    </style>
  </defs>
  <circle class="cls-2" cx="234.1" cy="250" r="195.2"/>
  <g>
    <path class="cls-1" d="M198.4,278.7c-6.5,7.8-16.3,13-29.4,13-26,0-39-19.8-39-41.6s13-41.6,39-41.6,17.8,2.9,24,7.6v-49.2c-7.4-1.7-15.4-2.6-24-2.6-58.2,0-91,41.6-91,85.8s32.8,85.8,91,85.8,40.2-6.9,54.9-18c-13.5-10.2-20.2-23.9-25.5-39.2Z"/>
    <path class="cls-1" d="M299.2,164.2c-8.6,0-16.5.9-24,2.6v49.2c6.1-4.7,14.1-7.6,24-7.6,26,0,39,19.8,39,41.6s-13,41.6-39,41.6-38.1-18.5-38.9-39.4h0v-88h-52v88h0c1.1,43.4,33.8,83.6,91,83.6s91-41.6,91-85.8-32.8-85.8-91-85.8Z"/>
  </g>
</svg>